<svg width="20" height="20" viewBox="0 0 20 20" fill="none" xmlns="http://www.w3.org/2000/svg">
<path fill-rule="evenodd" clip-rule="evenodd" d="M16 17.0289C14.897 17.0289 14 16.1319 14 15.0289C14 13.9259 14.897 13.0289 16 13.0289C17.103 13.0289 18 13.9259 18 15.0289C18 16.1319 17.103 17.0289 16 17.0289ZM4 13.0289C5.103 13.0289 6 13.9259 6 15.0289C6 16.1319 5.103 17.0289 4 17.0289C2.897 17.0289 2 16.1319 2 15.0289C2 13.9259 2.897 13.0289 4 13.0289ZM10 0.0289307C4.486 0.0289307 0 4.67893 0 10.3949V15.0289C0 17.2349 1.794 19.0289 4 19.0289C6.206 19.0289 8 17.2349 8 15.0289C8 12.8229 6.206 11.0289 4 11.0289C3.268 11.0289 2.591 11.2409 2 11.5859V10.3949C2 5.78193 5.589 2.02893 10 2.02893C14.411 2.02893 18 5.78193 18 10.3949V11.5859C17.409 11.2409 16.732 11.0289 16 11.0289C13.794 11.0289 12 12.8229 12 15.0289C12 17.2349 13.794 19.0289 16 19.0289C18.206 19.0289 20 17.2349 20 15.0289V10.3949C20 4.67893 15.514 0.0289307 10 0.0289307Z" fill="white"/>
</svg>
